<mxfile host="app.diagrams.net" modified="2024-04-26T20:48:06.566Z" agent="Mozilla/5.0 (Macintosh; Intel Mac OS X 10_15_7) AppleWebKit/605.1.15 (KHTML, like Gecko) Version/17.3 Safari/605.1.15" etag="2QyI2ACbROaO2RwFaEVj" version="24.3.0" type="github">
  <diagram name="Страница — 1" id="tt8TYxRbaa7Tng8jVo5R">
    <mxGraphModel dx="1304" dy="975" grid="0" gridSize="10" guides="1" tooltips="1" connect="1" arrows="1" fold="1" page="0" pageScale="1" pageWidth="827" pageHeight="1169" math="0" shadow="0">
      <root>
        <mxCell id="0" />
        <mxCell id="1" parent="0" />
        <mxCell id="TpgBCeiR7gNn7qAD-xgO-9" style="edgeStyle=none;curved=1;rounded=0;orthogonalLoop=1;jettySize=auto;html=1;exitX=1;exitY=0.5;exitDx=0;exitDy=0;fontSize=12;startSize=8;endSize=8;" parent="1" edge="1">
          <mxGeometry relative="1" as="geometry">
            <mxPoint x="-59" y="-36.5" as="sourcePoint" />
            <mxPoint x="-59" y="-36.5" as="targetPoint" />
          </mxGeometry>
        </mxCell>
        <mxCell id="TpgBCeiR7gNn7qAD-xgO-10" style="edgeStyle=none;curved=1;rounded=0;orthogonalLoop=1;jettySize=auto;html=1;exitX=1;exitY=1;exitDx=0;exitDy=0;fontSize=12;startSize=8;endSize=8;" parent="1" edge="1">
          <mxGeometry relative="1" as="geometry">
            <mxPoint x="-59" y="-8.5" as="sourcePoint" />
            <mxPoint x="-59" y="-8.5" as="targetPoint" />
          </mxGeometry>
        </mxCell>
        <mxCell id="TpgBCeiR7gNn7qAD-xgO-11" style="edgeStyle=none;curved=1;rounded=0;orthogonalLoop=1;jettySize=auto;html=1;exitX=0;exitY=1;exitDx=0;exitDy=0;fontSize=12;startSize=8;endSize=8;" parent="1" edge="1">
          <mxGeometry relative="1" as="geometry">
            <mxPoint x="-156" y="-6" as="sourcePoint" />
            <mxPoint x="-156" y="-6" as="targetPoint" />
          </mxGeometry>
        </mxCell>
        <mxCell id="TpgBCeiR7gNn7qAD-xgO-16" value=":Controller" style="shape=umlLifeline;whiteSpace=wrap;html=1;container=1;dropTarget=0;collapsible=0;recursiveResize=0;outlineConnect=0;portConstraint=eastwest;newEdgeStyle={&quot;curved&quot;:0,&quot;rounded&quot;:0};points=[[0,0,0,0,5],[0,1,0,0,-5],[1,0,0,0,5],[1,1,0,0,-5]];perimeter=rectanglePerimeter;targetShapes=umlLifeline;participant=label;" parent="1" vertex="1">
          <mxGeometry x="81" y="-56" width="100" height="676" as="geometry" />
        </mxCell>
        <mxCell id="TpgBCeiR7gNn7qAD-xgO-19" value="" style="html=1;points=[[0,0,0,0,5],[0,1,0,0,-5],[1,0,0,0,5],[1,1,0,0,-5]];perimeter=orthogonalPerimeter;outlineConnect=0;targetShapes=umlLifeline;portConstraint=eastwest;newEdgeStyle={&quot;curved&quot;:0,&quot;rounded&quot;:0};" parent="TpgBCeiR7gNn7qAD-xgO-16" vertex="1">
          <mxGeometry x="45" y="93.5" width="10" height="80" as="geometry" />
        </mxCell>
        <mxCell id="TpgBCeiR7gNn7qAD-xgO-32" value="" style="html=1;points=[[0,0,0,0,5],[0,1,0,0,-5],[1,0,0,0,5],[1,1,0,0,-5]];perimeter=orthogonalPerimeter;outlineConnect=0;targetShapes=umlLifeline;portConstraint=eastwest;newEdgeStyle={&quot;curved&quot;:0,&quot;rounded&quot;:0};" parent="TpgBCeiR7gNn7qAD-xgO-16" vertex="1">
          <mxGeometry x="45" y="229" width="10" height="108" as="geometry" />
        </mxCell>
        <mxCell id="TpgBCeiR7gNn7qAD-xgO-49" value="" style="html=1;points=[[0,0,0,0,5],[0,1,0,0,-5],[1,0,0,0,5],[1,1,0,0,-5]];perimeter=orthogonalPerimeter;outlineConnect=0;targetShapes=umlLifeline;portConstraint=eastwest;newEdgeStyle={&quot;curved&quot;:0,&quot;rounded&quot;:0};" parent="TpgBCeiR7gNn7qAD-xgO-16" vertex="1">
          <mxGeometry x="45" y="426" width="10" height="204" as="geometry" />
        </mxCell>
        <mxCell id="TpgBCeiR7gNn7qAD-xgO-18" value="" style="shape=umlLifeline;perimeter=lifelinePerimeter;whiteSpace=wrap;html=1;container=1;dropTarget=0;collapsible=0;recursiveResize=0;outlineConnect=0;portConstraint=eastwest;newEdgeStyle={&quot;curved&quot;:0,&quot;rounded&quot;:0};participant=umlActor;" parent="1" vertex="1">
          <mxGeometry x="-109" y="-56" width="20" height="666" as="geometry" />
        </mxCell>
        <mxCell id="TpgBCeiR7gNn7qAD-xgO-24" value="request" style="html=1;verticalAlign=bottom;endArrow=block;curved=0;rounded=0;fontSize=12;startSize=8;endSize=8;" parent="1" source="TpgBCeiR7gNn7qAD-xgO-18" edge="1">
          <mxGeometry width="80" relative="1" as="geometry">
            <mxPoint x="51" y="37.5" as="sourcePoint" />
            <mxPoint x="131" y="37.5" as="targetPoint" />
          </mxGeometry>
        </mxCell>
        <mxCell id="TpgBCeiR7gNn7qAD-xgO-25" value="code" style="html=1;verticalAlign=bottom;endArrow=open;dashed=1;endSize=8;curved=0;rounded=0;fontSize=12;" parent="1" target="TpgBCeiR7gNn7qAD-xgO-18" edge="1">
          <mxGeometry relative="1" as="geometry">
            <mxPoint x="131" y="117.5" as="sourcePoint" />
            <mxPoint x="51" y="117.5" as="targetPoint" />
          </mxGeometry>
        </mxCell>
        <mxCell id="TpgBCeiR7gNn7qAD-xgO-26" value=":Account" style="shape=umlLifeline;perimeter=lifelinePerimeter;whiteSpace=wrap;html=1;container=1;dropTarget=0;collapsible=0;recursiveResize=0;outlineConnect=0;portConstraint=eastwest;newEdgeStyle={&quot;curved&quot;:0,&quot;rounded&quot;:0};" parent="1" vertex="1">
          <mxGeometry x="271" y="37.5" width="100" height="582.5" as="geometry" />
        </mxCell>
        <mxCell id="TpgBCeiR7gNn7qAD-xgO-34" value="" style="html=1;points=[[0,0,0,0,5],[0,1,0,0,-5],[1,0,0,0,5],[1,1,0,0,-5]];perimeter=orthogonalPerimeter;outlineConnect=0;targetShapes=umlLifeline;portConstraint=eastwest;newEdgeStyle={&quot;curved&quot;:0,&quot;rounded&quot;:0};" parent="TpgBCeiR7gNn7qAD-xgO-26" vertex="1">
          <mxGeometry x="45" y="161.5" width="10" height="26.5" as="geometry" />
        </mxCell>
        <mxCell id="TpgBCeiR7gNn7qAD-xgO-37" value="" style="html=1;points=[[0,0,0,0,5],[0,1,0,0,-5],[1,0,0,0,5],[1,1,0,0,-5]];perimeter=orthogonalPerimeter;outlineConnect=0;targetShapes=umlLifeline;portConstraint=eastwest;newEdgeStyle={&quot;curved&quot;:0,&quot;rounded&quot;:0};" parent="TpgBCeiR7gNn7qAD-xgO-26" vertex="1">
          <mxGeometry x="45" y="233.5" width="10" height="34.5" as="geometry" />
        </mxCell>
        <mxCell id="TpgBCeiR7gNn7qAD-xgO-51" value="" style="html=1;points=[[0,0,0,0,5],[0,1,0,0,-5],[1,0,0,0,5],[1,1,0,0,-5]];perimeter=orthogonalPerimeter;outlineConnect=0;targetShapes=umlLifeline;portConstraint=eastwest;newEdgeStyle={&quot;curved&quot;:0,&quot;rounded&quot;:0};" parent="TpgBCeiR7gNn7qAD-xgO-26" vertex="1">
          <mxGeometry x="45" y="358.5" width="10" height="38.5" as="geometry" />
        </mxCell>
        <mxCell id="TpgBCeiR7gNn7qAD-xgO-59" value="" style="html=1;points=[[0,0,0,0,5],[0,1,0,0,-5],[1,0,0,0,5],[1,1,0,0,-5]];perimeter=orthogonalPerimeter;outlineConnect=0;targetShapes=umlLifeline;portConstraint=eastwest;newEdgeStyle={&quot;curved&quot;:0,&quot;rounded&quot;:0};" parent="TpgBCeiR7gNn7qAD-xgO-26" vertex="1">
          <mxGeometry x="45" y="491.5" width="10" height="39.5" as="geometry" />
        </mxCell>
        <mxCell id="TpgBCeiR7gNn7qAD-xgO-27" value="create" style="html=1;verticalAlign=bottom;endArrow=block;curved=0;rounded=0;fontSize=12;startSize=8;endSize=8;" parent="1" source="TpgBCeiR7gNn7qAD-xgO-19" edge="1">
          <mxGeometry width="80" relative="1" as="geometry">
            <mxPoint x="191" y="55.5" as="sourcePoint" />
            <mxPoint x="271" y="55.5" as="targetPoint" />
          </mxGeometry>
        </mxCell>
        <mxCell id="TpgBCeiR7gNn7qAD-xgO-28" value=":Bicycle" style="shape=umlLifeline;perimeter=lifelinePerimeter;whiteSpace=wrap;html=1;container=1;dropTarget=0;collapsible=0;recursiveResize=0;outlineConnect=0;portConstraint=eastwest;newEdgeStyle={&quot;curved&quot;:0,&quot;rounded&quot;:0};" parent="1" vertex="1">
          <mxGeometry x="417" y="-59" width="100" height="670" as="geometry" />
        </mxCell>
        <mxCell id="TpgBCeiR7gNn7qAD-xgO-31" value="" style="html=1;points=[[0,0,0,0,5],[0,1,0,0,-5],[1,0,0,0,5],[1,1,0,0,-5]];perimeter=orthogonalPerimeter;outlineConnect=0;targetShapes=umlLifeline;portConstraint=eastwest;newEdgeStyle={&quot;curved&quot;:0,&quot;rounded&quot;:0};" parent="TpgBCeiR7gNn7qAD-xgO-28" vertex="1">
          <mxGeometry x="45" y="208" width="10" height="94" as="geometry" />
        </mxCell>
        <mxCell id="TpgBCeiR7gNn7qAD-xgO-54" value="" style="html=1;points=[[0,0,0,0,5],[0,1,0,0,-5],[1,0,0,0,5],[1,1,0,0,-5]];perimeter=orthogonalPerimeter;outlineConnect=0;targetShapes=umlLifeline;portConstraint=eastwest;newEdgeStyle={&quot;curved&quot;:0,&quot;rounded&quot;:0};" parent="TpgBCeiR7gNn7qAD-xgO-28" vertex="1">
          <mxGeometry x="45" y="527" width="10" height="31" as="geometry" />
        </mxCell>
        <mxCell id="TpgBCeiR7gNn7qAD-xgO-60" value="" style="html=1;points=[[0,0,0,0,5],[0,1,0,0,-5],[1,0,0,0,5],[1,1,0,0,-5]];perimeter=orthogonalPerimeter;outlineConnect=0;targetShapes=umlLifeline;portConstraint=eastwest;newEdgeStyle={&quot;curved&quot;:0,&quot;rounded&quot;:0};" parent="TpgBCeiR7gNn7qAD-xgO-28" vertex="1">
          <mxGeometry x="45" y="597" width="10" height="30" as="geometry" />
        </mxCell>
        <mxCell id="TpgBCeiR7gNn7qAD-xgO-29" value=":Parking" style="shape=umlLifeline;perimeter=lifelinePerimeter;whiteSpace=wrap;html=1;container=1;dropTarget=0;collapsible=0;recursiveResize=0;outlineConnect=0;portConstraint=eastwest;newEdgeStyle={&quot;curved&quot;:0,&quot;rounded&quot;:0};" parent="1" vertex="1">
          <mxGeometry x="576" y="-35" width="100" height="645" as="geometry" />
        </mxCell>
        <mxCell id="TpgBCeiR7gNn7qAD-xgO-47" value="" style="html=1;points=[[0,0,0,0,5],[0,1,0,0,-5],[1,0,0,0,5],[1,1,0,0,-5]];perimeter=orthogonalPerimeter;outlineConnect=0;targetShapes=umlLifeline;portConstraint=eastwest;newEdgeStyle={&quot;curved&quot;:0,&quot;rounded&quot;:0};" parent="TpgBCeiR7gNn7qAD-xgO-29" vertex="1">
          <mxGeometry x="45" y="350" width="10" height="81" as="geometry" />
        </mxCell>
        <mxCell id="TpgBCeiR7gNn7qAD-xgO-30" value="inputCode(code)" style="html=1;verticalAlign=bottom;endArrow=block;curved=0;rounded=0;fontSize=12;startSize=8;endSize=8;" parent="1" edge="1">
          <mxGeometry width="80" relative="1" as="geometry">
            <mxPoint x="-98" y="152" as="sourcePoint" />
            <mxPoint x="460" y="152" as="targetPoint" />
          </mxGeometry>
        </mxCell>
        <mxCell id="TpgBCeiR7gNn7qAD-xgO-35" value="write_&lt;span style=&quot;white-space: normal;&quot;&gt;BikeID&lt;/span&gt;(BikeID)" style="html=1;verticalAlign=bottom;endArrow=block;curved=0;rounded=0;fontSize=12;startSize=8;endSize=8;" parent="1" source="TpgBCeiR7gNn7qAD-xgO-32" edge="1">
          <mxGeometry x="0.0093" width="80" relative="1" as="geometry">
            <mxPoint x="236" y="198.75" as="sourcePoint" />
            <mxPoint x="316" y="198.75" as="targetPoint" />
            <mxPoint as="offset" />
          </mxGeometry>
        </mxCell>
        <mxCell id="TpgBCeiR7gNn7qAD-xgO-36" value="get_access" style="html=1;verticalAlign=bottom;endArrow=block;curved=0;rounded=0;fontSize=12;startSize=8;endSize=8;" parent="1" source="TpgBCeiR7gNn7qAD-xgO-32" edge="1">
          <mxGeometry x="-0.1779" y="2" width="80" relative="1" as="geometry">
            <mxPoint x="382" y="242" as="sourcePoint" />
            <mxPoint x="462" y="242" as="targetPoint" />
            <mxPoint as="offset" />
          </mxGeometry>
        </mxCell>
        <mxCell id="TpgBCeiR7gNn7qAD-xgO-39" value="time_start" style="html=1;verticalAlign=bottom;endArrow=block;curved=0;rounded=0;fontSize=12;startSize=8;endSize=8;exitX=1;exitY=1;exitDx=0;exitDy=-5;exitPerimeter=0;" parent="1" source="TpgBCeiR7gNn7qAD-xgO-32" edge="1">
          <mxGeometry x="-0.0001" width="80" relative="1" as="geometry">
            <mxPoint x="186" y="306" as="sourcePoint" />
            <mxPoint x="316" y="273" as="targetPoint" />
            <mxPoint as="offset" />
          </mxGeometry>
        </mxCell>
        <mxCell id="TpgBCeiR7gNn7qAD-xgO-40" value="" style="endArrow=open;endFill=1;endSize=12;html=1;rounded=0;fontSize=12;curved=1;entryX=1;entryY=0;entryDx=0;entryDy=5;entryPerimeter=0;" parent="1" target="TpgBCeiR7gNn7qAD-xgO-32" edge="1">
          <mxGeometry width="160" relative="1" as="geometry">
            <mxPoint x="460" y="178" as="sourcePoint" />
            <mxPoint x="179" y="178" as="targetPoint" />
          </mxGeometry>
        </mxCell>
        <mxCell id="TpgBCeiR7gNn7qAD-xgO-41" value="" style="endArrow=open;endFill=1;endSize=12;html=1;rounded=0;fontSize=12;curved=1;" parent="1" edge="1">
          <mxGeometry width="160" relative="1" as="geometry">
            <mxPoint x="-100.5" y="320" as="sourcePoint" />
            <mxPoint x="620.5" y="320" as="targetPoint" />
          </mxGeometry>
        </mxCell>
        <mxCell id="TpgBCeiR7gNn7qAD-xgO-48" value="scanning" style="html=1;align=left;spacingLeft=2;endArrow=block;rounded=0;edgeStyle=orthogonalEdgeStyle;curved=0;rounded=0;fontSize=12;startSize=8;endSize=8;" parent="1" edge="1">
          <mxGeometry relative="1" as="geometry">
            <mxPoint x="632" y="330" as="sourcePoint" />
            <Array as="points">
              <mxPoint x="632" y="340" />
              <mxPoint x="690" y="340" />
              <mxPoint x="690" y="360" />
            </Array>
            <mxPoint x="637" y="360" as="targetPoint" />
          </mxGeometry>
        </mxCell>
        <mxCell id="TpgBCeiR7gNn7qAD-xgO-50" value="" style="endArrow=open;endFill=1;endSize=12;html=1;rounded=0;fontSize=12;curved=1;entryX=1;entryY=0;entryDx=0;entryDy=5;entryPerimeter=0;" parent="1" source="TpgBCeiR7gNn7qAD-xgO-47" target="TpgBCeiR7gNn7qAD-xgO-49" edge="1">
          <mxGeometry width="160" relative="1" as="geometry">
            <mxPoint x="620" y="380" as="sourcePoint" />
            <mxPoint x="140" y="381" as="targetPoint" />
          </mxGeometry>
        </mxCell>
        <mxCell id="TpgBCeiR7gNn7qAD-xgO-52" value="get_taken_&lt;span style=&quot;white-space: normal;&quot;&gt;BikeID&lt;/span&gt;" style="html=1;verticalAlign=bottom;endArrow=block;curved=0;rounded=0;fontSize=12;startSize=8;endSize=8;entryX=0;entryY=0;entryDx=0;entryDy=5;entryPerimeter=0;" parent="1" target="TpgBCeiR7gNn7qAD-xgO-51" edge="1">
          <mxGeometry x="-0.0001" width="80" relative="1" as="geometry">
            <mxPoint x="136" y="399" as="sourcePoint" />
            <mxPoint x="314" y="402" as="targetPoint" />
            <mxPoint as="offset" />
          </mxGeometry>
        </mxCell>
        <mxCell id="TpgBCeiR7gNn7qAD-xgO-53" value="taken_&lt;span style=&quot;white-space: normal;&quot;&gt;BikeID&lt;/span&gt;" style="html=1;verticalAlign=bottom;endArrow=open;dashed=1;endSize=8;curved=0;rounded=0;fontSize=12;" parent="1" target="TpgBCeiR7gNn7qAD-xgO-49" edge="1">
          <mxGeometry relative="1" as="geometry">
            <mxPoint x="316" y="435" as="sourcePoint" />
            <mxPoint x="236" y="435" as="targetPoint" />
            <mxPoint as="offset" />
          </mxGeometry>
        </mxCell>
        <mxCell id="TpgBCeiR7gNn7qAD-xgO-58" value="compare(taken_&lt;span style=&quot;white-space: normal;&quot;&gt;BikeID&lt;/span&gt;,&lt;span style=&quot;white-space: normal;&quot;&gt;BikeID&lt;/span&gt;)" style="html=1;verticalAlign=bottom;endArrow=block;curved=0;rounded=0;fontSize=12;startSize=8;endSize=8;" parent="1" source="TpgBCeiR7gNn7qAD-xgO-49" edge="1">
          <mxGeometry width="80" relative="1" as="geometry">
            <mxPoint x="380" y="469" as="sourcePoint" />
            <mxPoint x="460" y="469" as="targetPoint" />
          </mxGeometry>
        </mxCell>
        <mxCell id="TpgBCeiR7gNn7qAD-xgO-61" value="time_finish" style="html=1;verticalAlign=bottom;endArrow=block;curved=0;rounded=0;fontSize=12;startSize=8;endSize=8;" parent="1" source="TpgBCeiR7gNn7qAD-xgO-49" edge="1">
          <mxGeometry width="80" relative="1" as="geometry">
            <mxPoint x="240" y="530" as="sourcePoint" />
            <mxPoint x="320" y="530" as="targetPoint" />
          </mxGeometry>
        </mxCell>
        <mxCell id="TpgBCeiR7gNn7qAD-xgO-62" value="block" style="html=1;verticalAlign=bottom;endArrow=block;curved=0;rounded=0;fontSize=12;startSize=8;endSize=8;" parent="1" source="TpgBCeiR7gNn7qAD-xgO-26" edge="1">
          <mxGeometry x="0.0048" width="80" relative="1" as="geometry">
            <mxPoint x="380" y="540" as="sourcePoint" />
            <mxPoint x="460" y="540" as="targetPoint" />
            <mxPoint as="offset" />
          </mxGeometry>
        </mxCell>
        <mxCell id="TpgBCeiR7gNn7qAD-xgO-63" value="&lt;font style=&quot;font-size: 12px;&quot;&gt;get_BikeID(BikeID)&lt;/font&gt;" style="text;strokeColor=none;fillColor=none;html=1;align=center;verticalAlign=middle;whiteSpace=wrap;rounded=0;fontSize=16;" parent="1" vertex="1">
          <mxGeometry x="230" y="150" width="60" height="30" as="geometry" />
        </mxCell>
        <mxCell id="TpgBCeiR7gNn7qAD-xgO-65" value="&lt;font style=&quot;font-size: 13px;&quot;&gt;return&lt;/font&gt;" style="text;strokeColor=none;fillColor=none;html=1;align=center;verticalAlign=middle;whiteSpace=wrap;rounded=0;fontSize=16;" parent="1" vertex="1">
          <mxGeometry x="220" y="290" width="60" height="30" as="geometry" />
        </mxCell>
        <mxCell id="TpgBCeiR7gNn7qAD-xgO-66" value="&lt;font style=&quot;font-size: 12px;&quot;&gt;get_BikeID(BikeID)&lt;/font&gt;" style="text;strokeColor=none;fillColor=none;html=1;align=center;verticalAlign=middle;whiteSpace=wrap;rounded=0;fontSize=16;" parent="1" vertex="1">
          <mxGeometry x="220" y="350" width="60" height="30" as="geometry" />
        </mxCell>
      </root>
    </mxGraphModel>
  </diagram>
</mxfile>
